<svg width="24" height="25" viewBox="0 0 24 25" fill="none" xmlns="http://www.w3.org/2000/svg">
<g clip-path="url(#clip0_0_14161)">
<path d="M8.25 14V12.5C8.25 12.3011 8.32902 12.1103 8.46967 11.9697C8.61032 11.829 8.80109 11.75 9 11.75C9.19891 11.75 9.38968 11.829 9.53033 11.9697C9.67098 12.1103 9.75 12.3011 9.75 12.5V14C9.75 14.1989 9.67098 14.3897 9.53033 14.5303C9.38968 14.671 9.19891 14.75 9 14.75C8.80109 14.75 8.61032 14.671 8.46967 14.5303C8.32902 14.3897 8.25 14.1989 8.25 14ZM12 14.75C12.1989 14.75 12.3897 14.671 12.5303 14.5303C12.671 14.3897 12.75 14.1989 12.75 14V11.75C12.75 11.5511 12.671 11.3603 12.5303 11.2197C12.3897 11.079 12.1989 11 12 11C11.8011 11 11.6103 11.079 11.4697 11.2197C11.329 11.3603 11.25 11.5511 11.25 11.75V14C11.25 14.1989 11.329 14.3897 11.4697 14.5303C11.6103 14.671 11.8011 14.75 12 14.75ZM15 14.75C15.1989 14.75 15.3897 14.671 15.5303 14.5303C15.671 14.3897 15.75 14.1989 15.75 14V11C15.75 10.8011 15.671 10.6103 15.5303 10.4697C15.3897 10.329 15.1989 10.25 15 10.25C14.8011 10.25 14.6103 10.329 14.4697 10.4697C14.329 10.6103 14.25 10.8011 14.25 11V14C14.25 14.1989 14.329 14.3897 14.4697 14.5303C14.6103 14.671 14.8011 14.75 15 14.75ZM20.25 8V17H21C21.1989 17 21.3897 17.079 21.5303 17.2197C21.671 17.3603 21.75 17.5511 21.75 17.75C21.75 17.9489 21.671 18.1397 21.5303 18.2803C21.3897 18.421 21.1989 18.5 21 18.5H12.75V20.1294C13.2504 20.3063 13.6722 20.6544 13.9407 21.1122C14.2093 21.57 14.3073 22.1081 14.2176 22.6312C14.1278 23.1543 13.856 23.6288 13.4502 23.971C13.0444 24.3131 12.5308 24.5007 12 24.5007C11.4692 24.5007 10.9556 24.3131 10.5498 23.971C10.144 23.6288 9.87216 23.1543 9.7824 22.6312C9.69265 22.1081 9.79072 21.57 10.0593 21.1122C10.3278 20.6544 10.7496 20.3063 11.25 20.1294V18.5H3C2.80109 18.5 2.61032 18.421 2.46967 18.2803C2.32902 18.1397 2.25 17.9489 2.25 17.75C2.25 17.5511 2.32902 17.3603 2.46967 17.2197C2.61032 17.079 2.80109 17 3 17H3.75V8C3.35218 8 2.97064 7.84196 2.68934 7.56066C2.40804 7.27936 2.25 6.89783 2.25 6.5V5C2.25 4.60218 2.40804 4.22064 2.68934 3.93934C2.97064 3.65804 3.35218 3.5 3.75 3.5H20.25C20.6478 3.5 21.0294 3.65804 21.3107 3.93934C21.592 4.22064 21.75 4.60218 21.75 5V6.5C21.75 6.89783 21.592 7.27936 21.3107 7.56066C21.0294 7.84196 20.6478 8 20.25 8ZM12.75 22.25C12.75 22.1017 12.706 21.9567 12.6236 21.8333C12.5412 21.71 12.4241 21.6139 12.287 21.5571C12.15 21.5003 11.9992 21.4855 11.8537 21.5144C11.7082 21.5434 11.5746 21.6148 11.4697 21.7197C11.3648 21.8246 11.2934 21.9582 11.2644 22.1037C11.2355 22.2492 11.2503 22.4 11.3071 22.537C11.3639 22.6741 11.46 22.7912 11.5833 22.8736C11.7067 22.956 11.8517 23 12 23C12.1989 23 12.3897 22.921 12.5303 22.7803C12.671 22.6397 12.75 22.4489 12.75 22.25ZM3.75 6.5H20.25V5H3.75V6.5ZM18.75 8H5.25V17H18.75V8Z" fill="white"/>
</g>
<defs>
<clipPath id="clip0_0_14161">
<rect width="24" height="24" fill="white" transform="translate(0 0.5)"/>
</clipPath>
</defs>
</svg>
