<svg width="28" height="28" viewBox="0 0 28 28" fill="none" xmlns="http://www.w3.org/2000/svg">
<path d="M9.61784 8.45573V17.3281C9.61784 18.5531 10.6109 19.5462 11.8359 19.5462H18.4902M9.61784 8.45573V6.23763C9.61784 5.01261 10.6109 4.01953 11.8359 4.01953H16.9218C17.2159 4.01953 17.498 4.13638 17.706 4.34436L22.6016 9.23995C22.8096 9.44793 22.9264 9.73002 22.9264 10.0242V17.3281C22.9264 18.5531 21.9334 19.5462 20.7083 19.5462H18.4902M9.61784 8.45573H6.89563C5.94902 8.45573 5.18164 9.22311 5.18164 10.1697V21.7643C5.18164 22.9893 6.17472 23.9824 7.39974 23.9824H16.7762C17.7229 23.9824 18.4902 23.215 18.4902 22.2684V19.5462" stroke="#DDF247" stroke-width="1.28549" stroke-linecap="round" stroke-linejoin="round"/>
</svg>
