<svg width="26" height="27" viewBox="0 0 26 27" fill="none" xmlns="http://www.w3.org/2000/svg">
<path d="M7.50781 18.9922L18.4922 8.00781M8.42323 8.92318H8.44154M17.5769 18.0768H17.5952M9.33854 8.92318C9.33854 9.42872 8.92872 9.83854 8.42318 9.83854C7.91764 9.83854 7.50781 9.42872 7.50781 8.92318C7.50781 8.41764 7.91764 8.00781 8.42318 8.00781C8.92872 8.00781 9.33854 8.41764 9.33854 8.92318ZM18.4922 18.0768C18.4922 18.5824 18.0824 18.9922 17.5768 18.9922C17.0713 18.9922 16.6615 18.5824 16.6615 18.0768C16.6615 17.5713 17.0713 17.1615 17.5768 17.1615C18.0824 17.1615 18.4922 17.5713 18.4922 18.0768Z" stroke="#DDF247" stroke-width="3.99432" stroke-linecap="round" stroke-linejoin="round"/>
</svg>
