<svg width="25" height="24" viewBox="0 0 25 24" fill="none" xmlns="http://www.w3.org/2000/svg">
<path fill-rule="evenodd" clip-rule="evenodd" d="M7.68242 8.00039C7.68242 6.26069 9.09272 4.85039 10.8324 4.85039C12.5721 4.85039 13.9824 6.26069 13.9824 8.00039C13.9824 9.74009 12.5721 11.1504 10.8324 11.1504C9.09272 11.1504 7.68242 9.74009 7.68242 8.00039ZM10.8324 3.15039C8.15384 3.15039 5.98242 5.32181 5.98242 8.00039C5.98242 10.679 8.15384 12.8504 10.8324 12.8504C13.511 12.8504 15.6824 10.679 15.6824 8.00039C15.6824 5.32181 13.511 3.15039 10.8324 3.15039ZM5.68242 17.9171C5.68242 17.514 6.01107 16.9983 7.05079 16.5392C8.04032 16.1022 9.41666 15.8504 10.8324 15.8504C12.2281 15.8504 13.6033 16.1435 14.6003 16.6051C15.0993 16.8361 15.4652 17.0916 15.6954 17.3382C15.917 17.5756 15.9801 17.766 15.9824 17.9089C15.9743 17.9304 15.9375 17.9985 15.7951 18.1092C15.5767 18.279 15.2121 18.462 14.6974 18.6274C13.677 18.9553 12.2687 19.1504 10.8324 19.1504C9.13392 19.1504 7.73578 18.9525 6.79372 18.632C6.32006 18.4708 6.01348 18.2959 5.84011 18.1429C5.68135 18.0028 5.68228 17.929 5.68242 17.9178L5.68242 17.9171ZM15.9843 17.9014C15.9845 17.9014 15.9843 17.9034 15.983 17.9072C15.9835 17.9033 15.9841 17.9014 15.9843 17.9014ZM10.8324 14.1504C9.24819 14.1504 7.62452 14.4274 6.36405 14.984C5.15377 15.5185 3.98242 16.4611 3.98242 17.9171C3.98242 18.546 4.29997 19.0511 4.71536 19.4176C5.12012 19.7748 5.65728 20.041 6.24612 20.2414C7.42906 20.6439 9.03092 20.8504 10.8324 20.8504C12.3961 20.8504 13.9879 20.641 15.2175 20.2459C15.8277 20.0498 16.4007 19.7917 16.8385 19.4514C17.2728 19.1137 17.6824 18.6038 17.6824 17.9171C17.6824 17.2275 17.3685 16.6393 16.9382 16.1782C16.5121 15.7217 15.9406 15.3522 15.3145 15.0624C14.0615 14.4823 12.4367 14.1504 10.8324 14.1504ZM16.9863 11.9189C17.0314 11.4516 17.4467 11.1093 17.914 11.1543C19.1281 11.2713 20.2546 11.5869 21.1058 12.0792C21.9302 12.5559 22.6824 13.3204 22.6824 14.3737C22.6824 14.9196 22.4735 15.4174 22.0673 15.813C21.6844 16.1859 21.1616 16.4353 20.5643 16.6047C20.1126 16.7327 19.6427 16.4704 19.5147 16.0187C19.3866 15.5671 19.6489 15.0972 20.1006 14.9691C20.5482 14.8422 20.7754 14.6982 20.8812 14.5951C20.9638 14.5147 20.9824 14.454 20.9824 14.3737C20.9824 14.217 20.8652 13.9038 20.2548 13.5508C19.6713 13.2134 18.7978 12.9474 17.7509 12.8465C17.2836 12.8014 16.9413 12.3861 16.9863 11.9189ZM18.8324 3.15039C18.363 3.15039 17.9824 3.53095 17.9824 4.00039C17.9824 4.46983 18.363 4.85039 18.8324 4.85039C19.7437 4.85039 20.4824 5.58912 20.4824 6.50039C20.4824 7.41166 19.7437 8.15039 18.8324 8.15039C18.363 8.15039 17.9824 8.53095 17.9824 9.00039C17.9824 9.46983 18.363 9.85039 18.8324 9.85039C20.6826 9.85039 22.1824 8.35054 22.1824 6.50039C22.1824 4.65024 20.6826 3.15039 18.8324 3.15039Z" fill="#1C1D18"/>
</svg>
