<svg width="25" height="24" viewBox="0 0 25 24" fill="none" xmlns="http://www.w3.org/2000/svg">
<path fill-rule="evenodd" clip-rule="evenodd" d="M20.2174 4.22774H16.1893C15.7918 3.1005 15.3567 1.63672 13.504 1.63672C10.7279 1.63672 9.87366 3.1005 9.47603 4.22774H5.44806C4.37664 4.22774 4.10547 5.74504 4.10547 6.81858V20.4206C4.10547 21.4943 4.97326 22.3638 6.04494 22.3638H19.6207C20.6921 22.3638 21.56 21.4943 21.56 20.4206V6.81858C21.5599 5.74504 21.2888 4.22774 20.2174 4.22774ZM12.8327 4.87547C13.3659 4.87547 13.8023 5.30786 13.8023 5.84694C13.8023 6.38634 13.3659 6.81858 12.8327 6.81858C12.2994 6.81858 11.8631 6.38634 11.8631 5.84694C11.8631 5.30786 12.2994 4.87547 12.8327 4.87547ZM15.0146 19.0914H7.37826V16.9095H15.0146V19.0914ZM18.2873 14.7277H7.37826V12.5458H18.2873V14.7277ZM18.2873 10.3642H7.37826V8.18229H18.2873V10.3642Z" fill="#1C1D18"/>
</svg>
