<svg width="25" height="24" viewBox="0 0 25 24" fill="none" xmlns="http://www.w3.org/2000/svg">
<path d="M4.83203 5C4.83203 4.44772 5.27975 4 5.83203 4H19.832C20.3843 4 20.832 4.44772 20.832 5V7C20.832 7.55228 20.3843 8 19.832 8H5.83203C5.27975 8 4.83203 7.55228 4.83203 7V5Z" stroke="black" stroke-width="1.5" stroke-linecap="round" stroke-linejoin="round"/>
<path d="M4.83203 13C4.83203 12.4477 5.27975 12 5.83203 12H11.832C12.3843 12 12.832 12.4477 12.832 13V19C12.832 19.5523 12.3843 20 11.832 20H5.83203C5.27975 20 4.83203 19.5523 4.83203 19V13Z" stroke="black" stroke-width="1.5" stroke-linecap="round" stroke-linejoin="round"/>
<path d="M16.832 13C16.832 12.4477 17.2797 12 17.832 12H19.832C20.3843 12 20.832 12.4477 20.832 13V19C20.832 19.5523 20.3843 20 19.832 20H17.832C17.2797 20 16.832 19.5523 16.832 19V13Z" stroke="black" stroke-width="1.5" stroke-linecap="round" stroke-linejoin="round"/>
</svg>
