<svg width="18" height="19" viewBox="0 0 18 19" fill="none" xmlns="http://www.w3.org/2000/svg">
<path d="M3.79124 2.9353C3.74185 2.87962 3.68189 2.8343 3.61484 2.80196C3.5478 2.76962 3.475 2.7509 3.40068 2.74691C3.32635 2.74291 3.25196 2.7537 3.18184 2.77866C3.11171 2.80362 3.04724 2.84225 2.99215 2.89231C2.93706 2.94238 2.89246 3.00287 2.86093 3.0703C2.82939 3.13773 2.81155 3.21074 2.80845 3.28511C2.80534 3.35948 2.81703 3.43373 2.84282 3.50355C2.86862 3.57338 2.90802 3.63738 2.95874 3.69187L4.31156 5.18038C1.75781 6.74765 0.659525 9.16359 0.611009 9.27327C0.579026 9.34521 0.5625 9.42306 0.5625 9.50179C0.5625 9.58051 0.579026 9.65837 0.611009 9.7303C0.635618 9.78585 1.23117 11.1063 2.55515 12.4303C4.31929 14.1937 6.54749 15.1261 8.99999 15.1261C10.2604 15.1333 11.5081 14.8738 12.6612 14.3646L14.208 16.0669C14.2574 16.1225 14.3174 16.1679 14.3844 16.2002C14.4515 16.2326 14.5243 16.2513 14.5986 16.2553C14.6729 16.2593 14.7473 16.2485 14.8174 16.2235C14.8876 16.1985 14.952 16.1599 15.0071 16.1099C15.0622 16.0598 15.1068 15.9993 15.1384 15.9319C15.1699 15.8644 15.1877 15.7914 15.1908 15.7171C15.1939 15.6427 15.1823 15.5684 15.1565 15.4986C15.1307 15.4288 15.0913 15.3648 15.0405 15.3103L3.79124 2.9353ZM7.11913 8.2678L10.0491 11.4916C9.60784 11.7237 9.10203 11.8028 8.61105 11.7162C8.12006 11.6297 7.67172 11.3826 7.33641 11.0137C7.00111 10.6447 6.79783 10.1749 6.7585 9.67786C6.71918 9.18087 6.84603 8.68489 7.11913 8.2678ZM8.99999 14.0011C6.83577 14.0011 4.94507 13.2143 3.37992 11.6632C2.73748 11.0247 2.19109 10.2965 1.75781 9.50108C2.08757 8.88304 3.14015 7.15335 5.0871 6.02905L6.35273 7.41773C5.86275 8.04527 5.61039 8.82583 5.64027 9.62144C5.67015 10.4171 5.98035 11.1765 6.51602 11.7655C7.05169 12.3545 7.77835 12.7352 8.56756 12.8403C9.35678 12.9453 10.1577 12.768 10.8288 12.3396L11.8645 13.4787C10.9505 13.8294 9.97901 14.0065 8.99999 14.0011ZM9.42187 7.29116C9.2753 7.26319 9.14584 7.17814 9.06197 7.05472C8.97811 6.93129 8.94671 6.77961 8.97468 6.63304C9.00265 6.48646 9.08771 6.35701 9.21113 6.27314C9.33455 6.18928 9.48623 6.15788 9.63281 6.18585C10.3497 6.32484 11.0025 6.69185 11.4938 7.23216C11.985 7.77247 12.2885 8.45711 12.3588 9.18398C12.3727 9.33251 12.327 9.48047 12.2318 9.59532C12.1366 9.71017 11.9997 9.7825 11.8512 9.7964C11.8336 9.79743 11.816 9.79743 11.7984 9.7964C11.6578 9.797 11.5221 9.74493 11.418 9.65045C11.3139 9.55597 11.2489 9.42592 11.2359 9.28593C11.1886 8.80246 10.9865 8.34717 10.6596 7.98778C10.3328 7.62838 9.89869 7.38407 9.42187 7.29116ZM17.3869 9.7303C17.3573 9.7964 16.6451 11.3735 15.0412 12.81C14.9864 12.8606 14.9221 12.8999 14.852 12.9254C14.7819 12.951 14.7074 12.9623 14.6329 12.9588C14.5583 12.9552 14.4852 12.9369 14.4178 12.9049C14.3505 12.8728 14.2901 12.8277 14.2403 12.7721C14.1906 12.7165 14.1524 12.6515 14.1279 12.581C14.1035 12.5105 14.0934 12.4358 14.0981 12.3614C14.1028 12.2869 14.1223 12.2141 14.1554 12.1472C14.1885 12.0804 14.2346 12.0207 14.291 11.9719C15.0778 11.265 15.7388 10.4295 16.2457 9.50108C15.8115 8.70499 15.2639 7.97621 14.6201 7.33757C13.0549 5.78788 11.1642 5.00108 8.99999 5.00108C8.54399 5.00053 8.0887 5.03745 7.63874 5.11148C7.56557 5.12442 7.49056 5.12273 7.41804 5.10651C7.34553 5.0903 7.27694 5.05988 7.21625 5.01701C7.15556 4.97413 7.10396 4.91966 7.06444 4.85673C7.02492 4.79381 6.99826 4.72368 6.986 4.65039C6.97374 4.5771 6.97612 4.50211 6.993 4.42974C7.00989 4.35738 7.04095 4.28908 7.08438 4.22879C7.12781 4.16849 7.18276 4.11741 7.24605 4.07847C7.30934 4.03953 7.37972 4.01353 7.45312 4.00194C7.96441 3.91752 8.48178 3.87543 8.99999 3.87608C11.4525 3.87608 13.6807 4.80843 15.4448 6.57257C16.7688 7.89655 17.3644 9.21773 17.389 9.27327C17.421 9.34521 17.4375 9.42306 17.4375 9.50179C17.4375 9.58051 17.421 9.65837 17.389 9.7303H17.3869Z" fill="#919191"/>
</svg>
