<svg width="21" height="21" viewBox="0 0 21 21" fill="none" xmlns="http://www.w3.org/2000/svg">
<path d="M8.04626 5.29749C7.89549 5.44826 7.80313 5.65779 7.80343 5.88789L7.80343 5.98917C7.80343 6.44997 8.17646 6.823 8.63667 6.82241L13.1896 6.82241L5.48784 14.5242C5.16257 14.8494 5.16257 15.3774 5.48784 15.7027C5.81311 16.0279 6.34108 16.0279 6.66635 15.7027L14.3681 8.00093V12.5538C14.3681 13.0146 14.7411 13.3877 15.2013 13.3871H15.3026C15.7634 13.3871 16.1365 13.0141 16.1359 12.5538V5.88789C16.1359 5.42709 15.7628 5.05406 15.3026 5.05465L8.63667 5.05465C8.40627 5.05465 8.19704 5.14671 8.04626 5.29749Z" fill="#34C759"/>
</svg>
