<svg width="35" height="35" viewBox="0 0 35 35" fill="none" xmlns="http://www.w3.org/2000/svg">
<g clip-path="url(#clip0_0_17304)">
<path d="M17.1935 35.0003C26.6892 35.0003 34.387 27.3025 34.387 17.8068C34.387 8.31107 26.6892 0.613281 17.1935 0.613281C7.69779 0.613281 0 8.31107 0 17.8068C0 27.3025 7.69779 35.0003 17.1935 35.0003Z" fill="#6F41D8"/>
<path d="M22.6651 14.2522C22.2686 14.0212 21.7538 14.0212 21.3176 14.2522L18.2238 16.0296L16.123 17.188L13.0292 18.9643C12.6327 19.1964 12.118 19.1964 11.6817 18.9643L9.223 17.5738C8.82648 17.3428 8.54923 16.9183 8.54923 16.4541V13.7117C8.54923 13.2486 8.78672 12.8241 9.223 12.592L11.6408 11.2402C12.0384 11.008 12.5542 11.008 12.9905 11.2402L15.4084 12.592C15.806 12.8241 16.0832 13.2486 16.0832 13.7117V15.4891L18.184 14.2909V12.5146C18.1864 12.2839 18.1246 12.0571 18.0056 11.8594C17.8867 11.6617 17.7152 11.5009 17.5103 11.3949L13.0292 8.84596C12.6327 8.61385 12.118 8.61385 11.6817 8.84596L7.1211 11.3949C6.91617 11.5009 6.74468 11.6617 6.62572 11.8594C6.50676 12.0571 6.44501 12.2839 6.44733 12.5146V17.6512C6.44733 18.1154 6.68481 18.5399 7.1211 18.772L11.6817 21.3209C12.0782 21.552 12.594 21.552 13.0292 21.3209L16.123 19.5822L18.2238 18.3851L21.3176 16.6475C21.7141 16.4154 22.2288 16.4154 22.6651 16.6475L25.084 17.9993C25.4816 18.2304 25.7578 18.6548 25.7578 19.1191V21.8614C25.7578 22.3246 25.5214 22.7491 25.084 22.9812L22.6662 24.3717C22.2686 24.6038 21.7528 24.6038 21.3176 24.3717L18.8986 23.0198C18.501 22.7877 18.2238 22.3633 18.2238 21.9001V20.1227L16.123 21.3209V23.0972C16.123 23.5604 16.3605 23.9859 16.7967 24.2169L21.3573 26.7659C21.7538 26.998 22.2686 26.998 22.7049 26.7659L27.2654 24.2169C27.662 23.9859 27.9392 23.5614 27.9392 23.0972V17.9607C27.9415 17.7299 27.8798 17.5031 27.7608 17.3054C27.6419 17.1077 27.4704 16.9469 27.2654 16.8409L22.6662 14.2522H22.6651Z" fill="white"/>
</g>
<defs>
<clipPath id="clip0_0_17304">
<rect width="34.387" height="34.387" fill="white" transform="translate(0 0.613281)"/>
</clipPath>
</defs>
</svg>
