<svg width="23" height="23" viewBox="0 0 23 23" fill="none" xmlns="http://www.w3.org/2000/svg">
<path d="M11.5013 5.02018L11.5013 5.02935M11.5013 11.4368L11.5013 11.446M11.5013 17.8535L11.5013 17.8627M11.5013 5.93685C10.995 5.93685 10.5846 5.52644 10.5846 5.02018C10.5846 4.51392 10.995 4.10352 11.5013 4.10352C12.0076 4.10352 12.418 4.51392 12.418 5.02018C12.418 5.52644 12.0076 5.93685 11.5013 5.93685ZM11.5013 12.3535C10.995 12.3535 10.5846 11.9431 10.5846 11.4368C10.5846 10.9306 10.995 10.5202 11.5013 10.5202C12.0076 10.5202 12.418 10.9306 12.418 11.4368C12.418 11.9431 12.0076 12.3535 11.5013 12.3535ZM11.5013 18.7702C10.995 18.7702 10.5846 18.3598 10.5846 17.8535C10.5846 17.3473 10.995 16.9368 11.5013 16.9368C12.0076 16.9368 12.418 17.3473 12.418 17.8535C12.418 18.3598 12.0076 18.7702 11.5013 18.7702Z" stroke="white" stroke-width="1.0625" stroke-linecap="round" stroke-linejoin="round"/>
</svg>
