<svg width="12" height="11" viewBox="0 0 12 11" fill="none" xmlns="http://www.w3.org/2000/svg">
<path d="M8.33264 10.7025C8.48342 10.5517 8.57577 10.3422 8.57548 10.1121L8.57548 10.0108C8.57548 9.55003 8.20244 9.177 7.74223 9.17759L3.18931 9.17759L10.8911 1.47583C11.2163 1.15056 11.2163 0.622589 10.8911 0.297319C10.5658 -0.0279496 10.0378 -0.0279496 9.71256 0.297319L2.0108 7.99907V3.44615C2.0108 2.98536 1.63777 2.61232 1.17756 2.61291H1.07628C0.615483 2.61291 0.242447 2.98595 0.243036 3.44615V10.1121C0.243036 10.5729 0.616072 10.9459 1.07628 10.9454L7.74223 10.9454C7.97263 10.9454 8.18187 10.8533 8.33264 10.7025Z" fill="#FF3B30"/>
</svg>
