<svg width="22" height="22" viewBox="0 0 22 22" fill="none" xmlns="http://www.w3.org/2000/svg">
<path fill-rule="evenodd" clip-rule="evenodd" d="M17.7693 3.8751H14.0768C13.7125 2.8418 13.3137 1.5 11.6153 1.5C9.07052 1.5 8.28751 2.8418 7.92301 3.8751H4.23071C3.24858 3.8751 3 5.26596 3 6.25004V18.7185C3 19.7028 3.79547 20.4999 4.77785 20.4999H17.2223C18.2044 20.4999 19 19.7028 19 18.7185V6.25004C18.9999 5.26596 18.7514 3.8751 17.7693 3.8751ZM11 4.46886C11.4888 4.46886 11.8888 4.86521 11.8888 5.35937C11.8888 5.85382 11.4888 6.25004 11 6.25004C10.5111 6.25004 10.1111 5.85382 10.1111 5.35937C10.1111 4.86521 10.5111 4.46886 11 4.46886ZM13.0001 17.5001H6.00006V15.5H13.0001V17.5001ZM16 13.5001H6.00006V11.5H16V13.5001ZM16 9.50019H6.00006V7.5001H16V9.50019Z" fill="white"/>
</svg>
