<svg width="22" height="22" viewBox="0 0 22 22" fill="none" xmlns="http://www.w3.org/2000/svg">
<path d="M3.66602 5.49935C3.66602 4.48683 4.48683 3.66602 5.49935 3.66602H7.33268C8.3452 3.66602 9.16602 4.48683 9.16602 5.49935V7.33268C9.16602 8.3452 8.3452 9.16602 7.33268 9.16602H5.49935C4.48683 9.16602 3.66602 8.3452 3.66602 7.33268V5.49935Z" stroke="white" stroke-width="1.0625" stroke-linecap="round" stroke-linejoin="round"/>
<path d="M12.8327 5.49935C12.8327 4.48683 13.6535 3.66602 14.666 3.66602H16.4993C17.5119 3.66602 18.3327 4.48683 18.3327 5.49935V7.33268C18.3327 8.3452 17.5119 9.16602 16.4993 9.16602H14.666C13.6535 9.16602 12.8327 8.3452 12.8327 7.33268V5.49935Z" stroke="white" stroke-width="1.0625" stroke-linecap="round" stroke-linejoin="round"/>
<path d="M3.66602 14.666C3.66602 13.6535 4.48683 12.8327 5.49935 12.8327H7.33268C8.3452 12.8327 9.16602 13.6535 9.16602 14.666V16.4993C9.16602 17.5119 8.3452 18.3327 7.33268 18.3327H5.49935C4.48683 18.3327 3.66602 17.5119 3.66602 16.4993V14.666Z" stroke="white" stroke-width="1.0625" stroke-linecap="round" stroke-linejoin="round"/>
<path d="M12.8327 14.666C12.8327 13.6535 13.6535 12.8327 14.666 12.8327H16.4993C17.5119 12.8327 18.3327 13.6535 18.3327 14.666V16.4993C18.3327 17.5119 17.5119 18.3327 16.4993 18.3327H14.666C13.6535 18.3327 12.8327 17.5119 12.8327 16.4993V14.666Z" stroke="white" stroke-width="1.0625" stroke-linecap="round" stroke-linejoin="round"/>
</svg>
