<svg width="22" height="22" viewBox="0 0 22 22" fill="none" xmlns="http://www.w3.org/2000/svg">
<path fill-rule="evenodd" clip-rule="evenodd" d="M15.1084 7.69603H9.48574L8.00463 6.35161H5.48084C5.28772 6.35161 5.1307 6.50895 5.1307 6.70121V15.2989C5.1307 15.4918 5.28772 15.6492 5.48084 15.6492H5.74681L7.14322 8.46202H15.4581V8.04585C15.4581 7.85336 15.301 7.69603 15.1084 7.69603ZM16.6593 15.3822C16.6165 16.1978 15.9529 16.8504 15.1322 16.8753C15.1242 16.8753 15.1166 16.8775 15.1084 16.8775L14.3796 16.8782L5.48052 16.8775C4.61027 16.8775 3.90234 16.1698 3.90234 15.2993V6.70121C3.90234 5.83124 4.61046 5.12305 5.48103 5.12305H8.47915L9.96007 6.46746H15.1084C15.9787 6.46746 16.6866 7.17543 16.6866 8.0463V8.46202L18.1001 8.46247L16.6593 15.3822Z" fill="white"/>
</svg>
