<svg width="18" height="19" viewBox="0 0 18 19" fill="none" xmlns="http://www.w3.org/2000/svg">
<path d="M6.25 15.9167V10.4167C6.25 9.40414 5.42919 8.58333 4.41667 8.58333H2.58333C1.57081 8.58333 0.75 9.40414 0.75 10.4167V15.9167C0.75 16.9292 1.57081 17.75 2.58333 17.75H4.41667C5.42919 17.75 6.25 16.9292 6.25 15.9167ZM6.25 15.9167V6.75C6.25 5.73748 7.07081 4.91667 8.08333 4.91667H9.91667C10.9292 4.91667 11.75 5.73748 11.75 6.75V15.9167M6.25 15.9167C6.25 16.9292 7.07081 17.75 8.08333 17.75H9.91667C10.9292 17.75 11.75 16.9292 11.75 15.9167M11.75 15.9167V3.08333C11.75 2.07081 12.5708 1.25 13.5833 1.25H15.4167C16.4292 1.25 17.25 2.07081 17.25 3.08333V15.9167C17.25 16.9292 16.4292 17.75 15.4167 17.75H13.5833C12.5708 17.75 11.75 16.9292 11.75 15.9167Z" stroke="white" stroke-width="1.0625" stroke-linecap="round" stroke-linejoin="round"/>
</svg>
