<svg width="14" height="19" viewBox="0 0 14 19" fill="none" xmlns="http://www.w3.org/2000/svg">
<path d="M4.25065 11.3333L9.75065 5.83333M4.70901 6.29167H4.71818M9.29234 10.875H9.30151M13.4173 17.75V3.08333C13.4173 2.07081 12.5965 1.25 11.584 1.25H2.41732C1.4048 1.25 0.583984 2.07081 0.583984 3.08333V17.75L3.79232 15.9167L7.00065 17.75L10.209 15.9167L13.4173 17.75ZM5.16732 6.29167C5.16732 6.5448 4.96211 6.75 4.70898 6.75C4.45585 6.75 4.25065 6.5448 4.25065 6.29167C4.25065 6.03854 4.45585 5.83333 4.70898 5.83333C4.96211 5.83333 5.16732 6.03854 5.16732 6.29167ZM9.75065 10.875C9.75065 11.1281 9.54545 11.3333 9.29232 11.3333C9.03919 11.3333 8.83398 11.1281 8.83398 10.875C8.83398 10.6219 9.03919 10.4167 9.29232 10.4167C9.54545 10.4167 9.75065 10.6219 9.75065 10.875Z" stroke="white" stroke-width="1.0625" stroke-linecap="round" stroke-linejoin="round"/>
</svg>
