<svg width="22" height="22" viewBox="0 0 22 22" fill="none" xmlns="http://www.w3.org/2000/svg">
<path fill-rule="evenodd" clip-rule="evenodd" d="M18.1856 3.10155C18.5583 3.14741 18.8521 3.44096 18.8979 3.81355C18.9033 3.85822 19.0317 4.91935 18.9973 6.15686C18.9466 7.97739 18.5853 9.19901 17.8928 9.89164L17.0931 10.6915L15.7993 11.9853L12.755 15.0291L11.9135 15.8704L10.7562 17.0275L10.1777 16.4487L8.44173 14.7133L9.59897 13.5559L14.421 8.73482L14.4217 8.73393C14.4288 8.7268 14.4353 8.71939 14.4421 8.71227C14.4446 8.70958 14.4471 8.70692 14.4496 8.70426C14.4536 8.70004 14.4575 8.69586 14.4612 8.69167C14.4655 8.6867 14.4695 8.68154 14.4735 8.67642C14.4749 8.67469 14.4762 8.67296 14.4776 8.67125C14.4841 8.66351 14.4908 8.6555 14.4969 8.64733C14.5014 8.64142 14.5055 8.6349 14.5097 8.62901L14.5122 8.62555C14.518 8.6175 14.5238 8.6095 14.5292 8.60129C14.533 8.59555 14.5363 8.58919 14.5398 8.58343C14.546 8.57359 14.5523 8.56374 14.5578 8.5536C14.5613 8.54729 14.5645 8.54091 14.5677 8.53456C14.5689 8.53207 14.5702 8.52958 14.5714 8.52711C14.5727 8.52462 14.574 8.52215 14.5753 8.51968C14.578 8.51465 14.5806 8.50963 14.583 8.50456C14.5882 8.49325 14.5929 8.48195 14.5976 8.4705L14.5982 8.46897C14.5991 8.46691 14.6 8.46486 14.601 8.4628C14.6022 8.46001 14.6035 8.45722 14.6046 8.45444C14.6709 8.28427 14.6783 8.09684 14.6268 7.92305C14.6261 7.92059 14.6252 7.91818 14.6242 7.91579C14.6236 7.91406 14.6229 7.91234 14.6223 7.91062C14.6158 7.88974 14.6088 7.86899 14.6006 7.84826C14.5989 7.84411 14.597 7.84011 14.5951 7.83611C14.5935 7.83281 14.5919 7.82951 14.5904 7.82615C14.5889 7.82267 14.5873 7.81917 14.5858 7.81567C14.5798 7.80223 14.5737 7.78867 14.5668 7.77559C14.5645 7.77111 14.5617 7.76665 14.559 7.76218C14.5573 7.75938 14.5555 7.75658 14.5539 7.75377C14.5526 7.75144 14.5513 7.7491 14.55 7.74676C14.5422 7.733 14.5345 7.71913 14.5258 7.70593C14.5192 7.69611 14.5119 7.68658 14.5046 7.67704C14.5016 7.67306 14.4985 7.66907 14.4955 7.66506C14.4931 7.66178 14.4907 7.65842 14.4883 7.65506C14.4847 7.64992 14.481 7.64479 14.477 7.63993C14.4595 7.61829 14.4408 7.59769 14.4208 7.57785C14.1013 7.25812 13.5831 7.25812 13.2636 7.57755V7.57785L7.28429 13.5559L5.54901 11.821C5.54897 11.821 5.5489 11.821 5.54882 11.8209C5.5487 11.8207 5.54853 11.8205 5.54833 11.8204L4.96961 11.2416L6.12695 10.0848L10.0127 6.19971L11.3066 4.90588H11.3068L12.1064 4.10621C12.7991 3.41387 14.0208 3.05249 15.8419 3.00193C17.0796 2.96756 18.1409 3.09594 18.1856 3.10155ZM7.47723 4.10621C7.69639 3.88729 8.02049 3.81069 8.31459 3.90878L9.57059 4.32709L3.81237 10.0847L3.23387 9.50618C2.91425 9.18674 2.91425 8.66866 3.23377 8.34937L7.47723 4.10621ZM5.54833 14.1345L7.86289 16.4487C8.18241 16.7685 8.18241 17.2864 7.86289 17.6059C7.54337 17.9256 7.02519 17.9256 6.70567 17.6059L4.39111 15.2919C4.07159 14.9723 4.07159 14.4541 4.39111 14.1345C4.71073 13.8151 5.22881 13.8151 5.54833 14.1345ZM18.0904 13.683L17.6716 12.4272L11.9135 18.1846L12.4921 18.763C12.6456 18.9167 12.8537 19.0028 13.0707 19.0028C13.2878 19.0028 13.4959 18.9167 13.6492 18.763L17.8926 14.5204C18.1119 14.3012 18.1883 13.9771 18.0904 13.683Z" fill="white"/>
</svg>
