<svg width="22" height="23" viewBox="0 0 22 23" fill="none" xmlns="http://www.w3.org/2000/svg">
<path d="M10.8332 2.40079C10.9436 2.37942 11.0575 2.37942 11.1679 2.40079L18.2907 3.82534C18.6895 3.90369 18.978 4.25627 18.978 4.66226C18.978 5.06826 18.6895 5.42083 18.2907 5.49918L15.5591 6.04764V8.08118C15.5591 10.5991 13.5184 12.6397 11.0005 12.6397C8.48265 12.6397 6.44199 10.5991 6.44199 8.08118V6.04764L4.73253 5.70574V8.0242L5.29166 10.8163C5.32372 10.9837 5.28098 11.1582 5.17414 11.29C5.0673 11.4217 4.90347 11.5001 4.73253 11.5001H3.59289C3.42194 11.5001 3.26168 11.4253 3.15128 11.29C3.04088 11.1546 2.99814 10.9837 3.03375 10.8163L3.59289 8.0242V5.46713C3.25456 5.34961 3.02307 5.02908 3.02307 4.66226C3.02307 4.25627 3.31154 3.90369 3.71041 3.82534L10.8332 2.40079ZM7.00824 14.0536C7.38219 13.9325 7.78462 14.0678 8.05529 14.3563L10.5839 17.0452C10.8082 17.2838 11.1893 17.2838 11.4137 17.0452L13.9422 14.3563C14.2129 14.0678 14.6153 13.9325 14.9893 14.0536C17.3042 14.7979 18.978 16.9632 18.978 19.5239C18.978 20.1293 18.4865 20.6172 17.8847 20.6172H4.11641C3.51454 20.6172 3.02307 20.1257 3.02307 19.5239C3.02307 16.9632 4.69691 14.7979 7.00824 14.0536Z" fill="white"/>
</svg>
