<svg width="20" height="18" viewBox="0 0 20 18" fill="none" xmlns="http://www.w3.org/2000/svg">
<path d="M1.0625 0.75H2.333C2.8005 0.75 3.20842 1.06442 3.32942 1.51542L3.6805 2.83267M5.875 11.0625C5.14565 11.0625 4.44618 11.3522 3.93046 11.868C3.41473 12.3837 3.125 13.0832 3.125 13.8125H17.5625M5.875 11.0625H16.1582C17.1858 8.95417 18.0832 6.76883 18.8385 4.51933C13.8884 3.25722 8.78692 2.68956 3.6805 2.83267M5.875 11.0625L3.6805 2.83267M4.5 16.5625C4.5 16.7448 4.42757 16.9197 4.29864 17.0486C4.1697 17.1776 3.99484 17.25 3.8125 17.25C3.63016 17.25 3.4553 17.1776 3.32636 17.0486C3.19743 16.9197 3.125 16.7448 3.125 16.5625C3.125 16.3802 3.19743 16.2053 3.32636 16.0764C3.4553 15.9474 3.63016 15.875 3.8125 15.875C3.99484 15.875 4.1697 15.9474 4.29864 16.0764C4.42757 16.2053 4.5 16.3802 4.5 16.5625V16.5625ZM16.1875 16.5625C16.1875 16.7448 16.1151 16.9197 15.9861 17.0486C15.8572 17.1776 15.6823 17.25 15.5 17.25C15.3177 17.25 15.1428 17.1776 15.0139 17.0486C14.8849 16.9197 14.8125 16.7448 14.8125 16.5625C14.8125 16.3802 14.8849 16.2053 15.0139 16.0764C15.1428 15.9474 15.3177 15.875 15.5 15.875C15.6823 15.875 15.8572 15.9474 15.9861 16.0764C16.1151 16.2053 16.1875 16.3802 16.1875 16.5625V16.5625Z" stroke="white" stroke-width="1.0625" stroke-linecap="round" stroke-linejoin="round"/>
</svg>
