<svg width="22" height="23" viewBox="0 0 22 23" fill="none" xmlns="http://www.w3.org/2000/svg">
<path fill-rule="evenodd" clip-rule="evenodd" d="M15.5 8.40013C14.0996 8.40013 13.0001 9.20026 12.9004 9.29987L14.0996 10.8998C14.0996 10.8998 14.7999 10.3999 15.5 10.3999C16.9004 10.3999 17 11.5999 17 12C16.5997 11.8999 15.9005 11.7001 15 11.8999C13.5996 12.2003 12.2002 13.9006 12.9004 15.7998C13.5996 17.5997 16 17.9004 17 16.4003V17.4005H19.0001V12.0995C19.0001 9.39996 17.0997 8.40013 15.5 8.40013ZM14.5001 14.9005C14.4005 13.0003 16 13.0003 17 13.0996V14.0996C17 15.3 14.7002 16.4003 14.5001 14.9005ZM9.89998 17.4999H12.0001L8.79986 5.5H6.10019L3 17.4999H5.10011L6.10019 13.5002H8.79986L9.89998 17.4999ZM6.6002 11.5L7.39991 8.29977L8.29986 11.5H6.6002Z" fill="white"/>
</svg>
