<svg width="16" height="16" viewBox="0 0 16 16" fill="none" xmlns="http://www.w3.org/2000/svg">
<path d="M0.666016 1.58268C0.666016 1.07642 1.07642 0.666016 1.58268 0.666016H14.416C14.9223 0.666016 15.3327 1.07642 15.3327 1.58268V3.41602C15.3327 3.92228 14.9223 4.33268 14.416 4.33268H1.58268C1.07642 4.33268 0.666016 3.92228 0.666016 3.41602V1.58268Z" stroke="#FFF8F8" stroke-width="1.0625" stroke-linecap="round" stroke-linejoin="round"/>
<path d="M0.666016 8.91602C0.666016 8.40975 1.07642 7.99935 1.58268 7.99935H7.08268C7.58894 7.99935 7.99935 8.40975 7.99935 8.91602V14.416C7.99935 14.9223 7.58894 15.3327 7.08268 15.3327H1.58268C1.07642 15.3327 0.666016 14.9223 0.666016 14.416V8.91602Z" stroke="#FFF8F8" stroke-width="1.0625" stroke-linecap="round" stroke-linejoin="round"/>
<path d="M11.666 8.91602C11.666 8.40975 12.0764 7.99935 12.5827 7.99935H14.416C14.9223 7.99935 15.3327 8.40975 15.3327 8.91602V14.416C15.3327 14.9223 14.9223 15.3327 14.416 15.3327H12.5827C12.0764 15.3327 11.666 14.9223 11.666 14.416V8.91602Z" stroke="#FFF8F8" stroke-width="1.0625" stroke-linecap="round" stroke-linejoin="round"/>
</svg>
