<svg width="16" height="17" viewBox="0 0 16 17" fill="none" xmlns="http://www.w3.org/2000/svg">
<path fill-rule="evenodd" clip-rule="evenodd" d="M7.42266 5.52442H6.34519V6.41137H7.42266V5.52442ZM11.7328 5.52442H10.6553V6.41137H11.7328V5.52442ZM7.99995 0.5C3.58887 0.5 0 3.5426 0 7.28252C0 10.8472 3.25999 13.7781 7.38453 14.0455V15.9782C7.38453 16.1461 7.47947 16.3033 7.64008 16.4011C7.80111 16.4999 8.00704 16.5261 8.19458 16.4732C13.5864 14.9489 16 10.759 16 7.28252C16 3.5426 12.4111 0.5 7.99995 0.5ZM7.84953 7.86763C7.84953 8.84375 7.20934 9.72118 6.17948 10.1575C5.85343 10.2949 5.4617 10.1808 5.3016 9.90946C5.14036 9.63547 5.2715 9.30256 5.59434 9.16562C6.13141 8.93834 6.47783 8.49823 6.53035 7.99837H4.57846C4.21728 7.99837 3.92418 7.75013 3.92418 7.44409V5.22697C3.92418 4.92068 4.21728 4.67256 4.57846 4.67256H7.19538C7.55643 4.67256 7.84953 4.92068 7.84953 5.22697C7.84953 6.20272 7.84953 6.84439 7.84953 7.86763ZM12.0817 7.8689C12.0817 8.84502 11.4415 9.72245 10.4116 10.1587C10.0855 10.2962 9.69387 10.182 9.53377 9.91073C9.3723 9.63674 9.50344 9.30383 9.82627 9.16689C10.3636 8.93961 10.7099 8.4995 10.7625 7.99963H8.8105C8.44933 7.99963 8.15625 7.7514 8.15625 7.44536V5.22824C8.15625 4.92195 8.44933 4.67383 8.8105 4.67383H11.4274C11.7886 4.67383 12.0817 4.92195 12.0817 5.22824C12.0817 6.20399 12.0817 6.84565 12.0817 7.8689Z" fill="white"/>
</svg>
